<?xml version="1.0" encoding="UTF-8"?>
<!-- Created with Inkscape (http://www.inkscape.org/) -->
<svg width="90" height="90" version="1.1" viewBox="0 0 90 90" xmlns="http://www.w3.org/2000/svg">
 <g transform="translate(-9.1804 -12.497)">
  <circle cx="54.18" cy="57.497" r="45" fill-rule="evenodd" stroke-width="0"/>
  <path d="m30.142 76.437c-0.20568-0.20568 3.5161-4.2246 8.2707-8.931 8.5012-8.415 8.6696-8.5343 10.15-7.1913 4.0039 3.6334 6.8591 3.8766 10.277 0.8753l2.4733-2.1716 8.8377 8.3358c4.8607 4.5847 8.5788 8.588 8.2624 8.8962-0.62887 0.61259-47.663 0.79423-48.271 0.18642zm-3.5847-3.3128c-0.45683-0.8536-0.77348-7.3716-0.77348-15.922 0-20.162-0.37002-19.885 11.221-8.411l9.0574 8.9662-8.722 8.4058c-4.7971 4.6232-9.0116 8.4058-9.3655 8.4058-0.3539 0-0.99151-0.65036-1.4169-1.4453zm44.61-7.0451-8.7873-8.4147 9.3093-8.7554c8.4887-7.9836 9.3785-8.626 10.095-7.2875 1.0404 1.944 1.051 29.561 0.01212 31.503-0.42541 0.79489-1.0138 1.4282-1.3076 1.4074-0.29376-0.02079-4.4884-3.8244-9.3214-8.4525zm-19.606-5.6308c-1.2329-0.77734-6.7617-5.9733-12.286-11.547-6.9631-7.0245-9.7117-10.261-8.9594-10.55 0.59694-0.22907 11.674-0.32752 24.615-0.21879 17.407 0.14626 23.529 0.42604 23.529 1.0753 0 1.1733-22.475 22.66-23.698 22.656-0.52731-0.0015-1.9674-0.6388-3.2003-1.4161z" fill="#fff" stroke-width=".74719"/>
 </g>
</svg>
