<?xml version="1.0" encoding="UTF-8"?>
<!-- Created with Inkscape (http://www.inkscape.org/) -->
<svg width="90mm" height="90mm" version="1.1" viewBox="0 0 90 90" xml:space="preserve" xmlns="http://www.w3.org/2000/svg"><g transform="translate(-62.078 -85.467)"><g transform="matrix(4.7468,0,0,4.7468,-188.18,-355.57)"><circle cx="62.202" cy="102.39" r="9.4801" fill-rule="evenodd" stroke-width="0" style="paint-order:normal"/><path d="m65.406 107.61c-1.7027-0.37646-3.672-1.416-5.063-2.6727-0.2915-0.26336-0.83626-0.89441-1.2106-1.4024-1.1935-1.6194-1.828-3.1212-2.1172-5.0108-0.23621-1.5431-0.2274-1.5504 1.793-1.5012l1.5972 0.03891 0.37985 1.4568c0.41763 1.6017 0.43882 1.4888-0.45804 2.44l-0.53464 0.567 0.63652 0.84677c0.79872 1.0625 2.5383 2.5283 3.0007 2.5283 0.10006 0 0.47437-0.28805 0.83179-0.64011l0.64987-0.64009 0.67291 0.21431c0.37011 0.11799 1.0047 0.2563 1.4102 0.30748 0.89781 0.11325 0.99793 0.29871 0.99497 1.8425-0.0027 1.4748-0.16485 1.7526-1.0419 1.7866-0.37968 0.0149-1.0734-0.058-1.5417-0.16154z" fill="#fff" stroke-width=".13874"/></g></g></svg>
